<svg xmlns="http://www.w3.org/2000/svg" width="24.422" height="29.309" viewBox="0 0 24.422 29.309">
  <g id="Group_22745" data-name="Group 22745" transform="translate(-2047 -169)">
    <path id="map-marker-check" d="M22.857,3.586A12.218,12.218,0,1,0,5.587,20.875l8.63,8.44,8.64-8.45a12.234,12.234,0,0,0,0-17.279ZM14.1,16.4a2.421,2.421,0,0,1-1.719.709,2.445,2.445,0,0,1-1.73-.715L7.254,13.1l1.7-1.756,3.413,3.308,7.1-6.966,1.715,1.741L14.1,16.4Z" transform="translate(2044.993 168.994)" fill="#2078ff"/>
    <circle id="Ellipse_239" data-name="Ellipse 239" cx="8.5" cy="8.5" r="8.5" transform="translate(2051 175)" fill="#2078ff"/>
    <path id="seller" d="M9.166,7.3v.155a.9.9,0,0,1-.865.931H8.012a.9.9,0,0,1-.865-.931v0h0a.9.9,0,0,1-.865.931H5.994a.888.888,0,0,1-.855-.789.532.532,0,0,1,.044-.274l.165-.4A1.4,1.4,0,0,1,6.64,6.054H9.672a1.4,1.4,0,0,1,1.291.864l.165.4a.527.527,0,0,1,.044.274.888.888,0,0,1-.855.789h-.288a.9.9,0,0,1-.865-.931h0M6.519,2.794A2.794,2.794,0,1,0,3.726,5.589,2.8,2.8,0,0,0,6.519,2.794Zm3.8,6.52h-.288a1.733,1.733,0,0,1-.864-.231,1.739,1.739,0,0,1-.865.231H8.012a1.737,1.737,0,0,1-.865-.231,1.736,1.736,0,0,1-.864.231H5.994a1.72,1.72,0,0,1-.4-.053V9.78a1.4,1.4,0,0,0,1.4,1.4H9.321a1.4,1.4,0,0,0,1.4-1.4V9.262a1.7,1.7,0,0,1-.4.053ZM4.663,9.78V8.691a1.871,1.871,0,0,1-.447-.965,1.446,1.446,0,0,1,.1-.759L4.474,6.6A3.728,3.728,0,0,0,0,10.246v.466a.466.466,0,0,0,.466.466H5.141a2.3,2.3,0,0,1-.478-1.4Z" transform="translate(2054 175)" fill="#f0f5ff"/>
  </g>
</svg>
